<svg class="prefix__icon" viewBox="0 0 1024 1024" xmlns="http://www.w3.org/2000/svg" width="200" height="200"><path d="M512 170.667c130.475 0 240.939 83.797 277.93 199.296a198.827 198.827 0 00-41.557-.598 222.293 222.293 0 00-49.706 10.624C668.203 309.333 596.096 259.755 512 259.755c-100.267 0-183.467 70.528-199.381 163.029a279.04 279.04 0 00-89.43-3.84C241.28 278.954 363.691 170.667 512 170.667z" fill="#006DFE"/><path d="M258.475 417.323c54.442 0 104.192 20.181 142.165 53.418 16.085 14.08 45.227 39.68 87.381 76.8l-7.381-6.528-61.568 60.886-54.4-54.4c-34.219-34.262-66.09-47.958-106.197-47.958a133.59 133.59 0 000 267.222c10.666 0 29.312.768 56.064 2.346l-90.454 77.142a215.893 215.893 0 0134.347-428.971z" fill="#00CDD8"/><path d="M674.347 434.475a215.808 215.808 0 01168.618 397.354c-15.36 6.486-38.186 15.958-63.146 16.214-72.107.597-244.182.896-516.352.938H220.8a206248.107 206248.107 0 00397.013-380.714c18.262-17.579 41.131-27.264 56.534-33.792zm41.856 80.554c-9.259 3.926-23.04 9.771-34.048 20.352-30.166 29.099-109.952 105.643-239.446 229.632h53.419c148.181 0 242.773-.213 283.733-.554 15.062-.128 28.843-5.846 38.102-9.814a130.133 130.133 0 00-101.76-239.616z" fill="#00A2FF"/></svg>
