<svg class="prefix__icon" viewBox="0 0 1024 1024" fill="#fff" xmlns="http://www.w3.org/2000/svg" width="200" height="200"><path d="M621.675 408.021c16.618-74.24 28.224-127.936 34.837-161.194 16.64-83.734-26.57-161.494-112.213-161.494-77.227 0-116.011 38.379-138.88 115.094l-.587 2.24c-13.728 62.058-34.72 110.165-62.507 144.586a158.261 158.261 0 01-119.733 58.966l-21.91.469c-52.245 1.12-94.015 44.128-94.015 96.81v317.835c0 64.8 52.106 117.334 116.394 117.334h412.523c84.736 0 160.373-53.568 189.12-133.92L910.4 565.163c21.803-60.96-9.536-128.203-70.005-150.187a115.552 115.552 0 00-39.488-6.955H621.675z"/></svg>
