<svg class="prefix__icon" viewBox="0 0 1024 1024" xmlns="http://www.w3.org/2000/svg" width="200" height="200"><path d="M184.32 0h655.36Q1024 0 1024 184.32v655.36Q1024 1024 839.68 1024H184.32Q0 1024 0 839.68V184.32Q0 0 184.32 0z" fill="#EC5D85"/><path d="M512 241.961h52.224l65.065-96.317c49.633-50.32 89.64.43 63.857 45.71l-34.315 51.508C916.48 247.89 916.48 285.87 916.48 567.9c0 325.95 0 336.466-404.48 336.466S107.52 893.85 107.52 567.9c0-277.698 0-318.802 253.143-324.956l-39.434-58.368c-31.263-54.907 37.335-90.409 64.686-42.373l60.416 99.81c18.186-.052 41.185-.052 65.669-.052z" fill="#EF85A7"/><path d="M512 338.586c332.8 0 332.8 0 332.8 240.64s0 248.391-332.8 248.391-332.8-7.751-332.8-248.391 0-240.64 332.8-240.64z" fill="#EC5D85"/><path d="M281.6 558.08a30.72 30.72 0 01-27.474-16.978 30.72 30.72 0 0113.732-41.216l122.88-61.44a30.72 30.72 0 0141.216 13.742 30.72 30.72 0 01-13.742 41.216l-122.88 61.44a30.597 30.597 0 01-13.732 3.236zm471.04 0a30.607 30.607 0 01-12.851-2.836l-133.12-61.44a30.72 30.72 0 01-15.043-40.756 30.72 30.72 0 0140.766-15.022l133.12 61.44a30.72 30.72 0 01-12.872 58.614zm-297.984 108.8a15.36 15.36 0 01-12.288-6.195 15.36 15.36 0 013.072-21.494l68.506-50.913 50.35 52.623a15.36 15.36 0 01-22.2 21.238l-31.591-33.024-46.715 34.724a15.288 15.288 0 01-9.134 3.041z" fill="#EF85A7"/><path d="M65.536 369.316c15.032 101.908 32.85 147.18 44.544 355.328 14.633 2.181 177.705 10.045 204.052-74.63a16.148 16.148 0 001.65-10.874c-30.608-80.333-169.217-60.416-169.217-60.416s-10.363-146.504-11.5-238.838zm296.714 13.721l34.816 303.176h34.642l-26.47-305.08zM309.524 536.29h45.487l16.097 158.618-31.826 1.853zm137.34 6.697h45.803v162.345h-33.874zm-150.262-85.012h21.391l5.274 58.992-18.914 2.263zm30.392 0h21.391l2.54 55.808-17.408 1.618zm143.626 1.915h19.456v62.28H470.62zm-30.382 0h22.2v62.28h-16.63z" fill="#FFF"/><path d="M243.569 645.52a275.456 275.456 0 01-28.468 23.746 242.688 242.688 0 01-29.532 17.52 2.703 2.703 0 01-4.403-1.955 258.601 258.601 0 01-5.12-29.573c-1.413-12.186-1.956-25.682-2.16-36.363 0-.307 0-2.508 3.01-1.904a245.924 245.924 0 0134.222 9.574 257.024 257.024 0 0132.358 15.176c.523.256 2.52 1.485.093 3.778z" fill="#EB5480"/><path d="M513.29 369.316c15.033 101.908 32.85 147.18 44.544 355.328 14.633 2.181 177.705 10.045 204.053-74.63a16.148 16.148 0 001.648-10.874c-30.607-80.333-169.216-60.416-169.216-60.416s-10.363-146.504-11.5-238.838zm296.714 13.721l34.816 303.176h34.642l-26.47-305.08zM757.28 536.29h45.486l16.097 158.618-31.826 1.853zm137.339 6.697h45.803v162.345h-33.874zm-150.262-85.012h21.391l5.274 58.992-18.913 2.263zm30.392 0h21.392l2.539 55.808-17.408 1.618zm143.626 1.915h19.456v62.28h-19.456zm-30.382 0h22.2v62.28h-16.63z" fill="#FFF"/><path d="M691.323 645.52a275.456 275.456 0 01-28.467 23.746 242.688 242.688 0 01-29.532 17.52 2.703 2.703 0 01-4.404-1.955 258.601 258.601 0 01-5.12-29.573c-1.413-12.186-1.956-25.682-2.16-36.363 0-.307 0-2.508 3.01-1.904a245.924 245.924 0 0134.222 9.574 257.024 257.024 0 0132.359 15.176c.522.256 2.519 1.485.092 3.778z" fill="#EB5480"/></svg>
