<svg class="prefix__icon" viewBox="0 0 1024 1024" fill="#fff"  xmlns="http://www.w3.org/2000/svg" width="200" height="200"><path d="M621.675 408.021c16.618-74.24 28.224-127.936 34.837-161.194 16.64-83.734-26.57-161.494-112.213-161.494-77.227 0-116.011 38.379-138.88 115.094l-.587 2.24c-13.728 62.058-34.72 110.165-62.507 144.586a158.261 158.261 0 01-119.733 58.966l-21.91.469c-52.245 1.12-94.015 44.128-94.015 96.81v317.835c0 64.8 52.106 117.334 116.394 117.334h412.523c84.736 0 160.373-53.568 189.12-133.92L910.4 565.163c21.803-60.96-9.536-128.203-70.005-150.187a115.552 115.552 0 00-39.488-6.955H621.675zm-77.419-258.688c39.253 0 59.499 36.48 49.888 84.928-7.573 38.144-21.984 104.427-43.221 198.667-4.512 20.021 10.56 39.093 30.912 39.093H800.5c6.102 0 12.16 1.067 17.91 3.168 27.445 9.984 41.674 40.555 31.776 68.267l-85.568 239.573c-19.638 54.998-71.318 91.638-129.216 91.638H223.499c-29.184 0-52.832-23.883-52.832-53.334V503.5c0-17.867 14.144-32.448 31.829-32.822l21.867-.469a221.12 221.12 0 00167.381-82.56c34.347-42.603 59.147-99.307 74.87-169.877 15.487-51.435 32.938-68.438 77.653-68.438z"/></svg>
